<svg id="Capa_1" data-name="Capa 1" xmlns="http://www.w3.org/2000/svg" viewBox="0 0 841.92 595.2"><defs><style>.cls-1{fill:#fff;}.cls-2{fill:#527c91;}.cls-3{fill:#517c91;}.cls-4{fill:#527d91;}.cls-5{fill:#fdfdfd;}.cls-6{fill:#fdfefe;}</style></defs><title>1</title><path class="cls-1" d="M.48,437.68q0-297.6,0-595.2H842.4q0,297.6,0,595.2ZM354.31,114.19a7.79,7.79,0,0,1,1.87,2.46q16.43,26.78,32.82,53.6a3.24,3.24,0,0,0,3.24,1.84c4.32-.11,8.64-.13,13,0A3.71,3.71,0,0,0,409,170q16.24-27.46,32.63-54.83c.51-.86,1.07-1.7,1.63-2.6.61.59.38,1.17.39,1.69.09,6,.19,12,.22,18q.12,25.08.19,50.15a18.52,18.52,0,0,1,0,1.92c-.12,1.21.48,1.56,1.56,1.48.48,0,1,0,1.44,0q15.24,0,30.48,0c3.35,0,3,.34,3-2.92-.1-32.47,0-64.95-.32-97.42-.12-12.16-.07-24.32-.09-36.47a11.37,11.37,0,0,1,0-1.44c.17-1.33-.52-1.68-1.69-1.57-.4,0-.8,0-1.2,0-9,0-18.08.05-27.12,0a3.94,3.94,0,0,0-4,2.22q-22.33,37.79-44.8,75.5a9.05,9.05,0,0,1-1.76,2.59,5.08,5.08,0,0,1-1.44-1.89q-3.88-6.34-7.74-12.7-19.46-32-38.91-63.93a2.88,2.88,0,0,0-2.77-1.78c-9.68.08-19.36,0-29,0-1.84,0-1.88,0-1.89,1.84,0,4.72,0,9.44,0,14.16q0,60.59,0,121.18c0,2.81-.3,2.64,2.53,2.64h31.92c2.08,0,2.08,0,2.1-2.1,0-.48,0-1,0-1.44q0-32.63,0-65.27Zm258.19-1.3c.37-.82,1-.94,1.41-1.22,11.64-7,17.34-17.33,16.83-30.95a30.1,30.1,0,0,0-11.47-23.08c-5.81-4.76-12.6-7.48-19.82-9.24a102.8,102.8,0,0,0-24.74-2.5q-33.71.06-67.42,0a13.65,13.65,0,0,1-1.44,0c-1.2-.13-1.56.47-1.46,1.56,0,.4,0,.8,0,1.2q0,67.18,0,134.35c0,3-.32,2.74,2.66,2.74q36,0,72,0A123,123,0,0,0,597,184.69c7.63-1.12,15.05-3,21.91-6.64,9.21-4.92,15.54-12.13,17.84-22.55a38.86,38.86,0,0,0,.73-10.49c-.57-10.57-4.9-19.22-13.29-25.77A45.3,45.3,0,0,0,612.51,112.89ZM310,185.51c.2-.61-.14-1.09-.36-1.59q-1.74-4-3.48-7.9Q277.82,112,249.5,48a2.94,2.94,0,0,0-3.16-2.12q-17.27.13-34.55,0a3.05,3.05,0,0,0-3.33,2.24c-2.26,5.38-4.66,10.69-7,16Q175,124,148.57,183.88c-.24.54-.76,1-.32,1.87h1.85q17.87,0,35.75,0c2.52,0,2.15.36,3.22-2.26q4.61-11.32,9.17-22.66c.86-2.14.86-2.15,3.07-2.15H256c2.49,0,2.22-.21,3.23,2.27q4.58,11.34,9.16,22.67c.86,2.13.86,2.14,3.07,2.14q18.23,0,36.47,0A3.51,3.51,0,0,0,310,185.51Zm327.5-.08a3.56,3.56,0,0,0,2.24.32q17.87,0,35.75,0c2.39,0,2.11.33,3.09-2.1q4.65-11.43,9.25-22.89c.84-2.08.85-2.09,3.11-2.09h54.7c2.26,0,2.26,0,3.11,2.1,3.11,7.7,6.26,15.4,9.3,23.13a2.55,2.55,0,0,0,2.81,1.89c12.32-.06,24.63,0,36.95,0,.6,0,1.27.21,1.81-.3.15-.87-.39-1.53-.7-2.24q-16.34-36.94-32.71-73.87Q752.63,78.65,739.05,48c-.55-1.24-1-2.09-2.69-2.08-11.84.09-23.67.07-35.51,0a2.3,2.3,0,0,0-2.5,1.63C696,53,693.54,58.5,691.12,64L639.58,180.64C638.88,182.23,638.21,183.84,637.52,185.42ZM144.89,93q0-22.43,0-44.86c0-2.23,0-2.25-2.21-2.25h-83c-2.67,0-2.46-.09-2.46,2.48q0,13.08,0,26.15c0,1.89,0,1.89,1.82,2,.56,0,1.12,0,1.68,0h41.74c.64,0,1.28,0,1.92,0,.92,0,1.31.39,1.26,1.3,0,.4,0,.8,0,1.2q0,28.79,0,57.58a37.61,37.61,0,0,1-.53,6.44c-1.31,7.62-6,12.63-13.11,13.72a23.52,23.52,0,0,1-15.32-2.63,39.81,39.81,0,0,1-11.2-9.65c-1.66-2-1.44-2.23-3.24-.1q-9.37,11.08-18.72,22.18c-1.27,1.51-1.27,1.54.13,3.14a50,50,0,0,0,19,13.53c15.71,6.45,31.88,7.11,48.2,3,17-4.29,27.39-15.33,31.75-32.21a79.32,79.32,0,0,0,2.3-19.71C144.92,120.55,144.89,106.8,144.89,93Z" transform="translate(-0.48 157.52)"/><path class="cls-2" d="M354.31,114.19v2.75q0,32.63,0,65.27c0,.48,0,1,0,1.44,0,2.07,0,2.1-2.1,2.1H320.3c-2.83,0-2.53.16-2.53-2.64q0-60.59,0-121.18c0-4.72,0-9.44,0-14.16,0-1.8,0-1.83,1.89-1.84,9.68,0,19.36,0,29,0a2.88,2.88,0,0,1,2.77,1.78q19.44,32,38.91,63.93,3.87,6.35,7.74,12.7a5.08,5.08,0,0,0,1.44,1.89,9.05,9.05,0,0,0,1.76-2.59q22.43-37.73,44.8-75.5a3.94,3.94,0,0,1,4-2.22c9,.1,18.08,0,27.12,0,.4,0,.8,0,1.2,0,1.16-.11,1.85.24,1.69,1.57a11.37,11.37,0,0,0,0,1.44c0,12.16,0,24.32.09,36.47.31,32.47.22,64.95.32,97.42,0,3.26.39,2.92-3,2.92q-15.24,0-30.48,0c-.48,0-1,0-1.44,0-1.08.08-1.68-.26-1.56-1.48a18.52,18.52,0,0,0,0-1.92q-.09-25.08-.19-50.15c0-6-.13-12-.22-18,0-.51.22-1.09-.39-1.69-.56.9-1.12,1.74-1.63,2.6Q425.28,142.54,409,170a3.71,3.71,0,0,1-3.8,2.13c-4.31-.14-8.64-.11-13,0a3.24,3.24,0,0,1-3.24-1.84q-16.35-26.83-32.82-53.6A7.79,7.79,0,0,0,354.31,114.19Z" transform="translate(-0.48 157.52)"/><path class="cls-3" d="M612.51,112.89a45.3,45.3,0,0,1,11.66,6.35c8.39,6.55,12.72,15.2,13.29,25.77a38.86,38.86,0,0,1-.73,10.49c-2.29,10.41-8.62,17.63-17.84,22.55-6.86,3.66-14.28,5.52-21.91,6.64A123,123,0,0,1,579,185.77q-36,0-72,0c-3,0-2.66.24-2.66-2.74q0-67.18,0-134.35c0-.4,0-.8,0-1.2-.11-1.09.25-1.69,1.46-1.56a13.65,13.65,0,0,0,1.44,0q33.71,0,67.42,0a102.8,102.8,0,0,1,24.74,2.5c7.22,1.76,14,4.48,19.82,9.24a30.1,30.1,0,0,1,11.47,23.08c.5,13.62-5.19,23.91-16.83,30.95C613.46,111.95,612.88,112.07,612.51,112.89Zm-50.28,44.37c2.16,0,4.32,0,6.48,0,4.55-.06,9.11.21,13.66-.36a23.26,23.26,0,0,0,9.32-2.86,11.18,11.18,0,0,0,5.47-7.53c1.51-7.16-1-13.88-9.66-16.46a35.44,35.44,0,0,0-9.95-1.35c-10.64,0-21.27,0-31.91,0-2.13,0-2.16,0-2.16,2.07q0,12.24,0,24.47c0,2,0,2,2.2,2Zm-2.11-56v0c4.55,0,9.1,0,13.66,0a24.94,24.94,0,0,0,9.56-2,11.34,11.34,0,0,0,7.08-7.89c1.73-7-1.21-12.58-7.9-15.14a27.76,27.76,0,0,0-9.62-1.72c-9.26-.12-18.53,0-27.79-.1-1.25,0-1.65.44-1.64,1.67,0,7.83,0,15.65,0,23.48,0,1.67.05,1.71,1.78,1.72C550.21,101.29,555.16,101.27,560.11,101.27Z" transform="translate(-0.48 157.52)"/><path class="cls-4" d="M310,185.51a3.51,3.51,0,0,1-2.09.24q-18.23,0-36.47,0c-2.2,0-2.2,0-3.07-2.14q-4.58-11.33-9.16-22.67c-1-2.49-.73-2.27-3.23-2.27h-54.7c-2.2,0-2.21,0-3.07,2.15q-4.58,11.33-9.17,22.66c-1.07,2.62-.7,2.26-3.22,2.26q-17.87,0-35.75,0h-1.85c-.43-.82.09-1.33.32-1.87Q175,124,201.45,64.15c2.36-5.34,4.76-10.65,7-16a3.05,3.05,0,0,1,3.33-2.24q17.27.15,34.55,0A2.94,2.94,0,0,1,249.5,48q28.3,64,56.68,128,1.75,3.95,3.48,7.9C309.88,184.42,310.22,184.9,310,185.51Zm-63.32-56.13-18-44.73-18,44.73Z" transform="translate(-0.48 157.52)"/><path class="cls-4" d="M637.52,185.42c.68-1.58,1.36-3.19,2.06-4.78L691.12,64C693.54,58.5,696,53,698.35,47.52a2.3,2.3,0,0,1,2.5-1.63c11.84,0,23.67.07,35.51,0,1.68,0,2.15.84,2.69,2.08q13.56,30.7,27.17,61.38,16.36,36.93,32.71,73.87c.31.71.85,1.37.7,2.24-.55.5-1.21.3-1.81.3-12.32,0-24.63,0-36.95,0a2.55,2.55,0,0,1-2.81-1.89c-3-7.73-6.19-15.42-9.3-23.13-.84-2.09-.85-2.1-3.11-2.1H691c-2.26,0-2.27,0-3.11,2.09q-4.63,11.45-9.25,22.89c-1,2.42-.71,2.09-3.09,2.1q-17.87,0-35.75,0A3.56,3.56,0,0,1,637.52,185.42Zm98.77-56.06-18-44.71c-6.09,15.19-12.08,29.83-17.94,44.71Z" transform="translate(-0.48 157.52)"/><path class="cls-4" d="M144.89,93c0,13.75,0,27.51,0,41.26a79.32,79.32,0,0,1-2.3,19.71c-4.36,16.87-14.78,27.91-31.75,32.21-16.32,4.13-32.49,3.46-48.2-3a50,50,0,0,1-19-13.53c-1.4-1.6-1.4-1.64-.13-3.14q9.35-11.1,18.72-22.18c1.8-2.13,1.58-1.89,3.24.1a39.81,39.81,0,0,0,11.2,9.65A23.52,23.52,0,0,0,92,156.76c7.12-1.08,11.79-6.1,13.11-13.72a37.61,37.61,0,0,0,.53-6.44q0-28.79,0-57.58c0-.4,0-.8,0-1.2.05-.9-.34-1.33-1.26-1.3-.64,0-1.28,0-1.92,0H60.71c-.56,0-1.12,0-1.68,0-1.78-.06-1.82-.07-1.82-2q0-13.08,0-26.15c0-2.57-.21-2.48,2.46-2.48h83c2.19,0,2.2,0,2.21,2.25Q144.89,70.61,144.89,93Z" transform="translate(-0.48 157.52)"/><path class="cls-5" d="M562.23,157.26H545.67c-2.17,0-2.19,0-2.2-2q0-12.24,0-24.47c0-2,0-2.07,2.16-2.07,10.64,0,21.27,0,31.91,0a35.44,35.44,0,0,1,9.95,1.35c8.71,2.58,11.17,9.29,9.66,16.46a11.18,11.18,0,0,1-5.47,7.53,23.26,23.26,0,0,1-9.32,2.86c-4.54.56-9.1.3-13.66.36C566.55,157.28,564.39,157.26,562.23,157.26Z" transform="translate(-0.48 157.52)"/><path class="cls-6" d="M560.11,101.27c-5,0-9.9,0-14.85,0-1.72,0-1.77,0-1.78-1.72,0-7.83,0-15.65,0-23.48,0-1.23.39-1.67,1.64-1.67,9.26,0,18.53,0,27.79.1a27.76,27.76,0,0,1,9.62,1.72c6.69,2.56,9.63,8.18,7.9,15.14a11.34,11.34,0,0,1-7.08,7.89,24.94,24.94,0,0,1-9.56,2c-4.55.06-9.1,0-13.66,0Z" transform="translate(-0.48 157.52)"/><path class="cls-5" d="M246.71,129.38h-36l18-44.73Z" transform="translate(-0.48 157.52)"/><path class="cls-5" d="M736.3,129.37H700.37c5.86-14.88,11.85-29.53,17.94-44.71Z" transform="translate(-0.48 157.52)"/></svg>